<?xml version="1.0" standalone="no"?>
<!DOCTYPE svg PUBLIC "-//W3C//DTD SVG 20010904//EN"
 "http://www.w3.org/TR/2001/REC-SVG-20010904/DTD/svg10.dtd">
<svg version="1.0" xmlns="http://www.w3.org/2000/svg"
 width="612.000000pt" height="612.000000pt" viewBox="0 0 612.000000 612.000000"
 preserveAspectRatio="xMidYMid meet">
<metadata>
Created by potrace 1.11, written by Peter Selinger 2001-2013
</metadata>
<g transform="translate(0.000000,612.000000) scale(0.100000,-0.100000)"
fill="#000000" stroke="none">
<path d="M2805 5709 c-93 -9 -144 -17 -240 -35 -44 -9 -93 -18 -110 -21 -145
-25 -454 -140 -635 -235 -156 -83 -372 -225 -446 -293 -6 -5 -36 -30 -65 -55
-84 -70 -238 -229 -322 -332 -167 -206 -343 -510 -422 -728 -14 -41 -31 -84
-35 -95 -11 -24 -55 -181 -75 -267 -15 -67 -21 -99 -30 -163 -3 -22 -8 -51
-10 -65 -20 -114 -27 -508 -11 -640 29 -248 87 -483 172 -700 35 -87 148 -318
179 -364 14 -20 25 -39 25 -42 0 -7 97 -151 148 -219 388 -515 1011 -901 1627
-1008 11 -2 36 -7 55 -10 212 -39 593 -45 810 -12 422 64 784 206 1144 447 87
59 257 201 349 292 314 310 536 669 668 1081 41 126 84 306 94 389 4 28 8 52
10 55 10 18 20 203 20 381 -1 184 -6 285 -21 360 -2 14 -6 40 -8 57 -11 88
-26 151 -76 328 -148 519 -478 1000 -921 1347 -168 131 -406 270 -607 356
-165 70 -450 148 -627 172 -44 6 -91 13 -105 16 -41 9 -460 11 -535 3z m-335
-1370 c0 -9 21 -6 38 4 7 5 12 3 12 -3 0 -7 7 -7 22 1 16 9 23 9 26 1 3 -9 9
-9 23 -2 13 8 19 7 19 0 0 -8 6 -8 20 0 14 8 20 8 20 0 0 -8 6 -8 20 0 11 6
20 7 20 2 0 -10 42 -8 59 3 6 3 11 1 11 -5 0 -6 5 -8 11 -5 16 10 59 13 59 5
0 -10 20 -8 38 3 7 5 12 3 12 -3 0 -6 5 -8 11 -5 16 10 59 13 59 5 0 -10 20
-8 38 3 7 5 12 3 12 -3 0 -7 7 -7 22 1 16 9 23 9 26 1 3 -9 9 -9 23 -2 13 8
19 7 19 0 0 -8 6 -8 20 0 14 8 20 8 20 0 0 -8 6 -8 20 0 14 8 20 8 20 0 0 -8
6 -8 20 0 14 8 20 8 20 0 0 -8 6 -8 20 0 14 8 20 8 20 0 0 -8 6 -8 20 0 14 8
20 8 20 0 0 -8 6 -8 20 0 11 6 20 7 20 2 0 -10 42 -8 59 3 6 3 11 1 11 -5 0
-6 5 -8 11 -5 16 10 59 13 59 5 0 -10 20 -8 38 3 7 5 12 3 12 -3 0 -6 5 -8 11
-5 16 10 59 13 59 5 0 -10 20 -8 38 3 7 5 12 3 12 -3 0 -7 7 -7 22 1 16 9 23
9 26 1 3 -9 9 -9 23 -2 13 8 19 7 19 0 0 -8 6 -8 20 0 14 8 20 8 20 0 0 -8 6
-8 20 0 11 6 20 7 20 3 0 -12 70 -10 70 2 0 6 5 2 11 -9 7 -12 14 -14 18 -8 5
8 15 7 33 -2 19 -10 29 -11 37 -3 8 8 11 8 11 -2 0 -7 5 -9 10 -6 6 3 10 1 10
-5 0 -6 5 -8 10 -5 6 3 10 1 10 -5 0 -6 5 -8 10 -5 6 3 10 1 10 -5 0 -6 4 -8
10 -5 5 3 17 2 27 -3 21 -12 28 -46 7 -38 -8 3 -14 -1 -14 -10 0 -8 -5 -12
-10 -9 -6 3 -22 -2 -38 -13 -15 -11 -38 -23 -52 -27 -14 -4 -28 -12 -31 -17
-3 -5 -15 -10 -27 -11 -12 0 -24 -7 -27 -15 -3 -7 -9 -11 -14 -8 -5 3 -12 -2
-15 -11 -6 -15 -8 -15 -16 -3 -8 13 -10 12 -10 -2 0 -10 -3 -17 -7 -17 -20 3
-34 -2 -28 -10 3 -6 -3 -8 -13 -6 -10 2 -25 -5 -32 -15 -7 -10 -19 -16 -27
-13 -7 3 -13 0 -13 -7 0 -6 -4 -9 -9 -6 -5 3 -14 -1 -21 -9 -7 -8 -16 -12 -21
-9 -5 3 -9 0 -9 -6 0 -6 -4 -8 -10 -5 -5 3 -10 1 -10 -4 0 -6 -3 -11 -7 -10
-15 2 -53 -13 -53 -21 0 -9 -39 -23 -57 -21 -7 1 -10 -5 -7 -13 4 -11 0 -14
-14 -11 -12 2 -23 -3 -26 -11 -3 -9 -10 -12 -16 -9 -5 3 -10 1 -10 -4 0 -6 -6
-10 -12 -8 -7 1 -12 -3 -11 -10 2 -7 -4 -10 -12 -7 -8 4 -15 1 -15 -6 0 -10
-3 -10 -15 0 -12 10 -15 9 -15 -4 0 -10 -4 -14 -10 -11 -5 3 -10 1 -10 -4 0
-6 -9 -11 -21 -11 -11 0 -17 -4 -14 -10 3 -6 -1 -7 -9 -4 -9 4 -16 1 -16 -6 0
-8 -9 -11 -25 -8 -14 3 -25 1 -25 -6 0 -6 -5 -4 -10 4 -8 12 -10 12 -10 1 0
-10 -3 -11 -13 -2 -8 6 -16 8 -20 5 -11 -11 -57 -11 -57 0 0 6 -5 4 -10 -4 -7
-11 -10 -11 -10 -2 0 10 -5 10 -20 2 -12 -6 -20 -7 -20 -1 0 6 -11 6 -30 1
-16 -5 -30 -5 -30 0 0 10 -19 8 -37 -3 -8 -5 -13 -3 -13 3 0 6 -5 8 -11 4 -17
-10 -53 -11 -60 -1 -4 5 -16 4 -28 -2 -14 -8 -21 -8 -21 -1 0 8 -6 8 -20 0
-14 -8 -20 -8 -20 0 0 8 -6 8 -20 0 -14 -8 -20 -8 -20 0 0 8 -6 8 -20 0 -14
-8 -20 -8 -20 0 0 8 -6 8 -20 0 -14 -8 -20 -8 -20 0 0 8 -6 8 -20 0 -14 -8
-20 -8 -20 0 0 8 -6 8 -20 0 -14 -8 -20 -8 -20 0 0 6 -5 8 -11 5 -6 -4 -29 -8
-51 -10 -23 -2 -45 -10 -49 -17 -5 -7 -9 -9 -9 -4 0 6 -7 1 -16 -10 -8 -10
-13 -12 -9 -4 4 10 2 9 -8 -2 -8 -10 -17 -15 -20 -11 -4 3 -7 -1 -7 -9 0 -9
-7 -21 -15 -28 -8 -6 -14 -15 -13 -18 0 -4 -1 -9 -2 -12 -1 -3 -3 -12 -5 -20
-2 -8 -6 -23 -10 -32 -4 -10 -3 -18 3 -18 10 0 8 -42 -3 -59 -3 -6 -1 -11 5
-11 6 0 8 -5 3 -12 -11 -18 -13 -38 -3 -38 8 0 5 -43 -5 -59 -3 -6 -1 -11 5
-11 6 0 8 -5 4 -12 -4 -7 -7 -27 -6 -46 2 -21 -1 -31 -8 -27 -5 3 -10 1 -10
-5 0 -6 -4 -8 -10 -5 -5 3 -10 1 -10 -5 0 -6 -4 -9 -9 -6 -4 3 -19 -3 -31 -14
-12 -11 -26 -18 -30 -15 -4 2 -15 -4 -25 -15 -10 -11 -22 -17 -26 -14 -5 3 -9
1 -9 -4 0 -6 -11 -13 -25 -16 -14 -4 -25 -11 -25 -16 0 -5 -7 -7 -15 -4 -8 4
-15 1 -15 -5 0 -6 -6 -10 -12 -8 -7 1 -12 -3 -11 -9 1 -7 -6 -10 -17 -7 -11 3
-20 0 -20 -6 0 -6 -9 -11 -20 -11 -11 0 -20 -4 -20 -10 0 -5 -7 -10 -15 -10
-8 0 -15 -4 -15 -10 0 -5 -7 -7 -15 -4 -8 4 -15 1 -15 -6 0 -7 -8 -10 -20 -7
-11 3 -18 1 -15 -4 3 -4 -12 -17 -34 -29 -40 -20 -40 -20 -36 0 2 11 0 20 -5
20 -5 0 -5 13 0 30 5 19 5 30 -1 30 -6 0 -5 8 1 20 8 15 8 20 -2 20 -9 0 -9 3
2 10 8 5 10 10 4 10 -12 0 -11 41 1 59 3 6 1 11 -5 11 -6 0 -8 5 -3 13 11 18
13 37 3 37 -5 0 -5 14 0 30 5 19 5 30 -1 30 -6 0 -5 8 1 20 8 15 8 20 -2 20
-9 0 -9 3 2 10 8 5 10 10 4 10 -12 0 -11 41 1 59 3 6 1 11 -5 11 -6 0 -8 5 -3
13 11 18 13 37 3 37 -5 0 -5 14 0 30 5 19 5 30 -1 30 -6 0 -5 8 1 20 8 15 8
20 -2 20 -9 0 -9 3 2 10 8 5 10 10 4 10 -12 0 -11 41 1 59 3 6 1 11 -6 11 -8
0 -8 4 -1 13 6 7 12 30 14 51 1 20 6 40 10 42 5 3 6 10 3 15 -4 5 -1 9 6 9 8
0 7 5 -2 17 -8 9 -9 14 -3 10 13 -8 27 19 18 34 -3 5 2 9 10 9 10 0 13 6 10
15 -4 8 -1 15 7 15 7 0 9 3 6 6 -4 4 5 20 18 36 14 16 22 35 19 40 -4 6 -3 9
2 6 11 -6 45 28 36 36 -3 3 2 6 11 6 16 0 22 12 18 33 -1 5 3 6 9 2 6 -3 27 7
47 24 20 16 40 28 45 25 5 -3 7 0 6 8 -2 7 3 12 10 11 6 -2 12 2 12 8 0 6 6 9
14 6 8 -3 22 2 32 11 11 9 28 19 39 20 11 2 26 9 33 14 8 7 12 7 12 -2 0 -9 4
-9 13 -2 6 6 34 12 60 15 27 3 50 7 52 9 7 7 45 4 45 -3z m1928 -469 c7 -12
10 -25 7 -30 -4 -6 0 -10 7 -11 10 0 10 -2 -1 -6 -11 -5 -11 -7 0 -14 11 -7
11 -9 1 -9 -10 0 -10 -5 -2 -20 8 -15 8 -20 -2 -20 -9 0 -9 -3 2 -10 8 -5 10
-10 4 -10 -7 0 -9 -15 -4 -45 4 -25 4 -45 1 -45 -3 0 -4 -40 -1 -90 3 -50 2
-90 -1 -90 -3 0 -3 -20 1 -45 5 -30 3 -45 -4 -45 -6 0 -4 -5 4 -10 11 -7 11
-10 2 -10 -10 0 -10 -5 -2 -20 8 -15 8 -20 -2 -21 -10 0 -10 -2 1 -6 11 -5 11
-7 0 -14 -12 -7 -12 -9 0 -9 11 0 9 -4 -5 -15 -19 -15 -19 -15 1 -9 16 5 17 4
6 -4 -11 -7 -23 -6 -42 3 -14 8 -30 11 -34 7 -5 -4 -5 -1 -1 6 7 12 -4 16 -31
13 -7 -1 -13 6 -13 15 0 10 -3 14 -7 11 -3 -4 -15 1 -26 10 -11 10 -17 12 -13
6 4 -7 5 -13 2 -13 -2 0 -11 6 -18 13 -8 6 -24 18 -37 25 -19 11 -22 11 -16 0
3 -7 0 -5 -9 6 -8 10 -19 15 -25 11 -6 -3 -11 -1 -11 6 0 7 -3 9 -7 6 -3 -4
-11 0 -17 7 -6 8 -20 16 -31 18 -11 2 -28 11 -37 21 -9 11 -22 16 -28 12 -5
-3 -13 0 -16 9 -3 8 -11 13 -19 10 -7 -3 -19 2 -28 10 -8 8 -17 12 -21 9 -3
-3 -8 2 -12 11 -3 9 -11 13 -16 10 -6 -4 -9 7 -7 28 2 18 0 39 -4 45 -4 6 -3
15 3 18 8 5 8 11 0 20 -8 10 -4 16 20 26 16 8 30 17 30 21 0 5 7 8 15 8 8 0
15 4 15 10 0 5 6 7 14 4 7 -3 20 1 27 8 16 16 50 32 62 30 4 -1 7 3 7 9 0 6 6
9 13 6 8 -3 20 3 27 13 8 11 17 17 21 14 5 -3 17 4 27 14 10 10 26 18 36 16 9
-1 20 4 23 12 3 8 14 14 24 14 10 0 19 5 19 12 0 6 3 8 6 5 4 -4 19 2 34 13
15 11 29 17 32 14 3 -2 11 2 18 11 16 20 23 19 38 -5z m-2033 -1020 c-3 -6 1
-13 9 -16 12 -5 13 -10 5 -25 -5 -10 -6 -19 -1 -19 10 0 8 -42 -3 -59 -3 -6
-1 -11 5 -11 6 0 8 -5 3 -12 -11 -18 -13 -38 -3 -38 8 0 5 -43 -5 -59 -3 -6
-1 -11 5 -11 6 0 8 -5 3 -12 -11 -18 -13 -38 -3 -38 8 0 5 -43 -5 -59 -3 -6
-1 -11 5 -11 6 0 8 -5 5 -11 -11 -17 -13 -59 -3 -59 5 0 4 -9 -2 -20 -8 -14
-8 -20 0 -20 8 0 8 -6 0 -20 -6 -11 -7 -20 -3 -20 12 0 10 -50 -2 -50 -5 0 -2
-5 8 -11 9 -6 15 -14 12 -19 -8 -12 36 -71 47 -64 5 3 7 0 6 -8 -2 -7 3 -12
10 -10 6 1 12 -5 12 -14 0 -10 6 -14 15 -11 8 4 17 2 19 -2 3 -5 42 -9 88 -10
45 -1 85 -4 90 -7 4 -3 8 -2 8 3 0 4 40 6 90 3 50 -3 90 -3 90 0 0 3 32 3 70
0 39 -3 70 -3 70 0 0 3 40 3 90 0 50 -3 90 -3 90 0 0 3 32 3 70 0 39 -3 70 -3
70 0 0 3 40 3 90 0 50 -3 90 -3 90 0 0 3 59 4 131 3 109 -2 131 0 136 13 5 13
7 13 14 2 7 -10 9 -9 9 5 0 9 6 17 13 17 17 0 57 45 57 64 0 9 4 16 10 16 5 0
7 7 4 15 -4 8 -1 15 5 15 9 0 9 5 1 20 -8 14 -8 20 0 20 7 0 8 6 2 17 -5 9 -6
29 -2 44 5 15 5 31 2 35 -4 4 -2 4 5 0 12 -6 52 10 64 27 3 4 15 9 27 10 11 0
19 4 16 8 -2 4 7 10 21 13 14 4 25 11 25 16 0 5 7 7 15 4 8 -4 17 1 21 10 3 9
10 13 15 10 6 -3 17 0 25 7 9 7 23 14 32 15 8 2 19 9 23 16 5 7 9 9 9 3 0 -6
3 -6 8 0 8 11 53 33 63 31 4 0 16 7 26 17 11 9 23 14 26 10 4 -3 7 0 7 7 0 7
3 10 7 7 3 -4 12 -2 20 4 7 6 13 8 13 3 0 -5 4 -3 9 5 5 8 19 15 30 16 16 1
18 -2 10 -16 -5 -10 -5 -20 -1 -23 5 -3 6 -28 2 -56 -4 -28 -2 -54 3 -57 5 -3
5 -9 0 -14 -5 -5 -6 -34 -3 -64 3 -30 4 -55 1 -55 -4 0 -4 -40 -1 -90 3 -50 3
-90 0 -90 -3 0 -3 -27 0 -60 3 -33 2 -60 -2 -60 -5 0 -6 -11 -4 -25 3 -14 1
-23 -5 -20 -5 4 -9 0 -10 -7 -1 -28 -8 -51 -16 -57 -4 -3 -8 -15 -8 -26 0 -11
-8 -29 -17 -39 -10 -11 -18 -26 -18 -33 0 -7 -4 -13 -10 -13 -5 0 -12 -11 -16
-25 -4 -14 -9 -24 -11 -21 -6 6 -32 -17 -28 -24 1 -3 -11 -17 -26 -32 -16 -15
-29 -26 -29 -24 0 2 -14 -9 -30 -24 -17 -16 -44 -35 -60 -42 -17 -7 -30 -16
-30 -19 0 -4 -20 -12 -45 -19 -25 -7 -45 -18 -45 -24 0 -6 -4 -5 -9 3 -6 9
-11 10 -15 2 -4 -6 -18 -11 -32 -11 -13 0 -24 -6 -24 -12 0 -9 -4 -8 -10 2 -6
10 -10 11 -10 3 0 -9 -7 -10 -24 -3 -15 5 -27 5 -35 -3 -8 -8 -11 -8 -11 1 0
10 -5 10 -20 2 -12 -6 -20 -7 -20 -1 0 6 -11 6 -30 1 -16 -5 -30 -5 -30 0 0
10 -19 8 -37 -3 -8 -5 -13 -3 -13 3 0 6 -5 8 -11 5 -18 -12 -59 -13 -59 -1 0
6 -5 4 -10 -4 -7 -11 -10 -11 -10 -2 0 10 -5 10 -20 2 -12 -6 -20 -7 -20 -1 0
6 -11 6 -30 1 -17 -5 -30 -5 -30 0 0 10 -19 8 -37 -3 -8 -5 -13 -3 -13 3 0 6
-5 8 -11 5 -18 -12 -59 -13 -59 -1 0 6 -5 4 -10 -4 -7 -11 -10 -11 -10 -2 0
10 -5 10 -20 2 -12 -6 -20 -7 -20 -1 0 6 -11 6 -30 1 -16 -5 -30 -5 -30 0 0
10 -19 8 -37 -3 -8 -5 -13 -3 -13 3 0 6 -5 8 -11 5 -18 -12 -59 -13 -59 -1 0
6 -5 4 -10 -4 -7 -11 -10 -11 -10 -2 0 10 -5 10 -20 2 -12 -6 -20 -7 -20 -1 0
6 -11 6 -30 1 -16 -5 -30 -5 -30 0 0 10 -19 8 -37 -3 -8 -5 -13 -3 -13 3 0 6
-5 8 -11 5 -18 -12 -59 -13 -59 -1 0 6 -5 4 -10 -4 -7 -11 -10 -11 -10 -2 0
10 -5 10 -20 2 -12 -6 -20 -7 -20 -1 0 6 -11 6 -30 1 -16 -5 -30 -5 -30 0 0
10 -19 8 -37 -3 -8 -5 -13 -3 -13 3 0 6 -5 8 -11 5 -18 -12 -59 -13 -59 -1 0
6 -5 4 -10 -4 -7 -11 -10 -11 -10 -2 0 10 -5 10 -20 2 -11 -6 -20 -7 -20 -2 0
10 -42 8 -59 -3 -6 -3 -11 -1 -11 5 0 8 -6 8 -20 0 -14 -8 -20 -8 -20 0 0 8
-6 8 -20 0 -14 -8 -20 -8 -20 0 0 8 -6 8 -20 0 -14 -8 -20 -8 -20 0 0 7 -7 7
-22 -1 -16 -9 -23 -9 -26 0 -2 6 -17 11 -33 11 -16 0 -29 6 -30 13 0 9 -2 9
-6 0 -3 -10 -8 -9 -20 2 -8 8 -19 13 -24 10 -5 -4 -9 -1 -9 5 0 6 -4 9 -9 5
-5 -3 -17 2 -25 11 -9 8 -16 10 -16 4 0 -6 -10 -2 -22 10 -12 11 -28 20 -35
20 -7 0 -13 7 -13 15 0 8 -3 14 -7 14 -21 -3 -33 2 -33 15 0 8 -9 18 -20 21
-11 3 -20 11 -20 16 0 6 -5 7 -12 3 -6 -4 -8 -3 -4 4 3 6 -3 17 -14 25 -11 7
-17 17 -13 20 3 4 -1 7 -11 7 -9 0 -15 4 -12 9 4 5 -5 23 -19 39 -13 16 -22
32 -18 36 3 3 1 6 -5 6 -7 0 -12 7 -12 15 0 8 -5 15 -11 15 -8 0 -8 5 1 15 9
10 9 15 1 15 -6 0 -11 7 -11 15 0 8 -6 15 -12 16 -10 0 -10 2 0 6 10 4 10 8 1
19 -6 7 -9 21 -5 29 4 11 2 14 -6 9 -7 -5 -9 0 -6 14 4 12 2 22 -3 22 -6 0 -5
8 1 20 6 11 7 20 2 20 -10 0 -8 42 3 59 3 6 1 11 -5 11 -6 0 -8 5 -3 13 11 18
12 37 2 37 -6 0 -7 5 -4 11 9 14 13 69 5 69 -4 0 -7 7 -7 15 0 8 3 15 7 15 4
0 7 7 7 15 0 8 -3 15 -7 15 -8 0 -5 49 4 57 2 3 1 16 -4 29 -7 17 -6 24 3 25
9 0 9 2 -1 6 -6 2 -9 10 -5 16 10 17 11 47 1 47 -4 0 0 9 9 19 9 11 22 17 29
14 8 -3 14 0 14 7 0 6 4 9 9 6 5 -3 12 1 15 10 3 8 10 12 16 9 5 -3 10 -2 10
2 0 5 17 15 38 22 20 8 40 18 43 23 3 5 15 10 27 11 11 0 19 4 16 8 -2 4 7 10
21 13 14 4 25 11 25 17 0 6 4 8 10 4 9 -6 50 13 61 28 3 4 15 9 27 10 11 0 19
4 16 8 -2 4 5 10 16 14 11 3 20 10 20 15 0 5 6 7 14 4 7 -3 21 2 30 11 9 9 20
13 26 10 6 -4 10 -3 9 2 -2 13 1 23 7 23 3 0 2 -5 -1 -10z"/>
</g>
</svg>
